<?xml version="1.0" encoding="UTF-8" standalone="no"?>
<!DOCTYPE svg PUBLIC "-//W3C//DTD SVG 1.1//EN"
 "http://www.w3.org/Graphics/SVG/1.1/DTD/svg11.dtd">
<!-- Generated by graphviz version 2.38.0 (20140413.2041)
 -->
<!-- Title: snakemake_dag Pages: 1 -->
<svg width="773pt" height="404pt"
 viewBox="0.00 0.00 773.00 404.00" xmlns="http://www.w3.org/2000/svg" xmlns:xlink="http://www.w3.org/1999/xlink">
<g id="graph0" class="graph" transform="scale(1 1) rotate(0) translate(4 400)">
<title>snakemake_dag</title>
<polygon fill="white" stroke="none" points="-4,4 -4,-400 769,-400 769,4 -4,4"/>
<!-- 0 -->
<g id="node1" class="node"><title>0</title>
<path fill="none" stroke="#80d856" stroke-width="2" d="M446.5,-36C446.5,-36 416.5,-36 416.5,-36 410.5,-36 404.5,-30 404.5,-24 404.5,-24 404.5,-12 404.5,-12 404.5,-6 410.5,-0 416.5,-0 416.5,-0 446.5,-0 446.5,-0 452.5,-0 458.5,-6 458.5,-12 458.5,-12 458.5,-24 458.5,-24 458.5,-30 452.5,-36 446.5,-36"/>
<text text-anchor="middle" x="431.5" y="-15.5" font-family="sans" font-size="10.00">all</text>
</g>
<!-- 1 -->
<g id="node2" class="node"><title>1</title>
<path fill="none" stroke="#d87d56" stroke-width="2" d="M73,-108C73,-108 12,-108 12,-108 6,-108 0,-102 0,-96 0,-96 0,-84 0,-84 0,-78 6,-72 12,-72 12,-72 73,-72 73,-72 79,-72 85,-78 85,-84 85,-84 85,-96 85,-96 85,-102 79,-108 73,-108"/>
<text text-anchor="middle" x="42.5" y="-87.5" font-family="sans" font-size="10.00">star_statistics</text>
</g>
<!-- 1&#45;&gt;0 -->
<g id="edge4" class="edge"><title>1&#45;&gt;0</title>
<path fill="none" stroke="grey" stroke-width="2" d="M85.2905,-75.5802C90.0611,-74.2806 94.8685,-73.0555 99.5,-72 205.212,-47.9081 332.311,-30.8741 394.104,-23.3398"/>
<polygon fill="grey" stroke="grey" stroke-width="2" points="394.646,-26.7999 404.156,-22.1281 393.809,-19.8502 394.646,-26.7999"/>
</g>
<!-- 2 -->
<g id="node3" class="node"><title>2</title>
<path fill="none" stroke="#56d8b9" stroke-width="2" d="M604.5,-180C604.5,-180 530.5,-180 530.5,-180 524.5,-180 518.5,-174 518.5,-168 518.5,-168 518.5,-156 518.5,-156 518.5,-150 524.5,-144 530.5,-144 530.5,-144 604.5,-144 604.5,-144 610.5,-144 616.5,-150 616.5,-156 616.5,-156 616.5,-168 616.5,-168 616.5,-174 610.5,-180 604.5,-180"/>
<text text-anchor="middle" x="567.5" y="-159.5" font-family="sans" font-size="10.00">deseq2_pairwise</text>
</g>
<!-- 2&#45;&gt;0 -->
<g id="edge1" class="edge"><title>2&#45;&gt;0</title>
<path fill="none" stroke="grey" stroke-width="2" d="M536.952,-143.779C521.922,-134.404 504.15,-121.89 490.5,-108 472.048,-89.2234 455.912,-63.8918 445.201,-45.0554"/>
<polygon fill="grey" stroke="grey" stroke-width="2" points="448.161,-43.1763 440.251,-36.1273 442.039,-46.5703 448.161,-43.1763"/>
</g>
<!-- 6 -->
<g id="node7" class="node"><title>6</title>
<path fill="none" stroke="#d86e56" stroke-width="2" d="M569.5,-108C569.5,-108 511.5,-108 511.5,-108 505.5,-108 499.5,-102 499.5,-96 499.5,-96 499.5,-84 499.5,-84 499.5,-78 505.5,-72 511.5,-72 511.5,-72 569.5,-72 569.5,-72 575.5,-72 581.5,-78 581.5,-84 581.5,-84 581.5,-96 581.5,-96 581.5,-102 575.5,-108 569.5,-108"/>
<text text-anchor="middle" x="540.5" y="-87.5" font-family="sans" font-size="10.00">deseq2_qplot</text>
</g>
<!-- 2&#45;&gt;6 -->
<g id="edge15" class="edge"><title>2&#45;&gt;6</title>
<path fill="none" stroke="grey" stroke-width="2" d="M560.826,-143.697C557.785,-135.813 554.117,-126.304 550.739,-117.546"/>
<polygon fill="grey" stroke="grey" stroke-width="2" points="553.962,-116.175 547.097,-108.104 547.431,-118.694 553.962,-116.175"/>
</g>
<!-- 7 -->
<g id="node8" class="node"><title>7</title>
<path fill="none" stroke="#d8a456" stroke-width="2" d="M641.5,-108C641.5,-108 611.5,-108 611.5,-108 605.5,-108 599.5,-102 599.5,-96 599.5,-96 599.5,-84 599.5,-84 599.5,-78 605.5,-72 611.5,-72 611.5,-72 641.5,-72 641.5,-72 647.5,-72 653.5,-78 653.5,-84 653.5,-84 653.5,-96 653.5,-96 653.5,-102 647.5,-108 641.5,-108"/>
<text text-anchor="middle" x="626.5" y="-87.5" font-family="sans" font-size="10.00">GO</text>
</g>
<!-- 2&#45;&gt;7 -->
<g id="edge16" class="edge"><title>2&#45;&gt;7</title>
<path fill="none" stroke="grey" stroke-width="2" d="M582.084,-143.697C589.158,-135.305 597.783,-125.07 605.545,-115.861"/>
<polygon fill="grey" stroke="grey" stroke-width="2" points="608.315,-118.006 612.083,-108.104 602.963,-113.495 608.315,-118.006"/>
</g>
<!-- 8 -->
<g id="node9" class="node"><title>8</title>
<path fill="none" stroke="#8fd856" stroke-width="2" d="M715,-108C715,-108 684,-108 684,-108 678,-108 672,-102 672,-96 672,-96 672,-84 672,-84 672,-78 678,-72 684,-72 684,-72 715,-72 715,-72 721,-72 727,-78 727,-84 727,-84 727,-96 727,-96 727,-102 721,-108 715,-108"/>
<text text-anchor="middle" x="699.5" y="-87.5" font-family="sans" font-size="10.00">volcano</text>
</g>
<!-- 2&#45;&gt;8 -->
<g id="edge17" class="edge"><title>2&#45;&gt;8</title>
<path fill="none" stroke="grey" stroke-width="2" d="M599.791,-143.876C618.767,-133.813 642.826,-121.055 662.556,-110.592"/>
<polygon fill="grey" stroke="grey" stroke-width="2" points="664.372,-113.59 671.567,-105.813 661.092,-107.406 664.372,-113.59"/>
</g>
<!-- 3 -->
<g id="node4" class="node"><title>3</title>
<path fill="none" stroke="#ced856" stroke-width="2" d="M308,-180C308,-180 247,-180 247,-180 241,-180 235,-174 235,-168 235,-168 235,-156 235,-156 235,-150 241,-144 247,-144 247,-144 308,-144 308,-144 314,-144 320,-150 320,-156 320,-156 320,-168 320,-168 320,-174 314,-180 308,-180"/>
<text text-anchor="middle" x="277.5" y="-159.5" font-family="sans" font-size="10.00">deseq2_group</text>
</g>
<!-- 3&#45;&gt;0 -->
<g id="edge3" class="edge"><title>3&#45;&gt;0</title>
<path fill="none" stroke="grey" stroke-width="2" d="M234.544,-152.14C180.623,-139.119 99.0073,-111.952 132.5,-72 165.508,-32.627 321.584,-22.4856 394.189,-19.8875"/>
<polygon fill="grey" stroke="grey" stroke-width="2" points="394.392,-23.3829 404.271,-19.5564 394.162,-16.3866 394.392,-23.3829"/>
</g>
<!-- 4 -->
<g id="node5" class="node"><title>4</title>
<path fill="none" stroke="#a7d856" stroke-width="2" d="M201,-108C201,-108 154,-108 154,-108 148,-108 142,-102 142,-96 142,-96 142,-84 142,-84 142,-78 148,-72 154,-72 154,-72 201,-72 201,-72 207,-72 213,-78 213,-84 213,-84 213,-96 213,-96 213,-102 207,-108 201,-108"/>
<text text-anchor="middle" x="177.5" y="-87.5" font-family="sans" font-size="10.00">deseq2_QC</text>
</g>
<!-- 3&#45;&gt;4 -->
<g id="edge13" class="edge"><title>3&#45;&gt;4</title>
<path fill="none" stroke="grey" stroke-width="2" d="M253.037,-143.876C240.204,-134.893 224.304,-123.763 210.406,-114.034"/>
<polygon fill="grey" stroke="grey" stroke-width="2" points="212.256,-111.057 202.057,-108.19 208.242,-116.792 212.256,-111.057"/>
</g>
<!-- 5 -->
<g id="node6" class="node"><title>5</title>
<path fill="none" stroke="#d89556" stroke-width="2" d="M312,-108C312,-108 243,-108 243,-108 237,-108 231,-102 231,-96 231,-96 231,-84 231,-84 231,-78 237,-72 243,-72 243,-72 312,-72 312,-72 318,-72 324,-78 324,-84 324,-84 324,-96 324,-96 324,-102 318,-108 312,-108"/>
<text text-anchor="middle" x="277.5" y="-87.5" font-family="sans" font-size="10.00">deseq2_density</text>
</g>
<!-- 3&#45;&gt;5 -->
<g id="edge14" class="edge"><title>3&#45;&gt;5</title>
<path fill="none" stroke="grey" stroke-width="2" d="M277.5,-143.697C277.5,-135.983 277.5,-126.712 277.5,-118.112"/>
<polygon fill="grey" stroke="grey" stroke-width="2" points="281,-118.104 277.5,-108.104 274,-118.104 281,-118.104"/>
</g>
<!-- 10 -->
<g id="node11" class="node"><title>10</title>
<path fill="none" stroke="#5692d8" stroke-width="2" d="M431,-108C431,-108 354,-108 354,-108 348,-108 342,-102 342,-96 342,-96 342,-84 342,-84 342,-78 348,-72 354,-72 354,-72 431,-72 431,-72 437,-72 443,-78 443,-84 443,-84 443,-96 443,-96 443,-102 437,-108 431,-108"/>
<text text-anchor="middle" x="392.5" y="-87.5" font-family="sans" font-size="10.00">run_glimma_mds</text>
</g>
<!-- 3&#45;&gt;10 -->
<g id="edge19" class="edge"><title>3&#45;&gt;10</title>
<path fill="none" stroke="grey" stroke-width="2" d="M305.632,-143.876C320.668,-134.724 339.367,-123.342 355.56,-113.485"/>
<polygon fill="grey" stroke="grey" stroke-width="2" points="357.538,-116.379 364.26,-108.19 353.898,-110.4 357.538,-116.379"/>
</g>
<!-- 4&#45;&gt;0 -->
<g id="edge7" class="edge"><title>4&#45;&gt;0</title>
<path fill="none" stroke="grey" stroke-width="2" d="M213.392,-74.724C216.122,-73.7636 218.847,-72.844 221.5,-72 281.251,-52.9946 352.262,-36.2612 394.512,-26.9038"/>
<polygon fill="grey" stroke="grey" stroke-width="2" points="395.337,-30.306 404.354,-24.7424 393.836,-23.4689 395.337,-30.306"/>
</g>
<!-- 5&#45;&gt;0 -->
<g id="edge5" class="edge"><title>5&#45;&gt;0</title>
<path fill="none" stroke="grey" stroke-width="2" d="M315.173,-71.8761C339.542,-60.7991 371.095,-46.4567 395.19,-35.5045"/>
<polygon fill="grey" stroke="grey" stroke-width="2" points="396.702,-38.6621 404.357,-31.3378 393.805,-32.2896 396.702,-38.6621"/>
</g>
<!-- 6&#45;&gt;0 -->
<g id="edge2" class="edge"><title>6&#45;&gt;0</title>
<path fill="none" stroke="grey" stroke-width="2" d="M513.836,-71.8761C499.716,-62.8083 482.189,-51.5523 466.939,-41.7592"/>
<polygon fill="grey" stroke="grey" stroke-width="2" points="468.573,-38.6485 458.267,-36.1898 464.79,-44.5385 468.573,-38.6485"/>
</g>
<!-- 7&#45;&gt;0 -->
<g id="edge6" class="edge"><title>7&#45;&gt;0</title>
<path fill="none" stroke="grey" stroke-width="2" d="M599.132,-75.6633C596.238,-74.3774 593.323,-73.1322 590.5,-72 549.439,-55.5299 501.065,-39.9282 468.55,-29.9732"/>
<polygon fill="grey" stroke="grey" stroke-width="2" points="469.165,-26.5022 458.579,-26.9455 467.131,-33.2002 469.165,-26.5022"/>
</g>
<!-- 8&#45;&gt;0 -->
<g id="edge10" class="edge"><title>8&#45;&gt;0</title>
<path fill="none" stroke="grey" stroke-width="2" d="M671.869,-75.5649C668.745,-74.2681 665.578,-73.0479 662.5,-72 595.688,-49.256 514.703,-33.1966 468.532,-25.0746"/>
<polygon fill="grey" stroke="grey" stroke-width="2" points="469.126,-21.6253 458.675,-23.3686 467.932,-28.5228 469.126,-21.6253"/>
</g>
<!-- 9 -->
<g id="node10" class="node"><title>9</title>
<path fill="none" stroke="#56d87b" stroke-width="2" d="M753,-180C753,-180 702,-180 702,-180 696,-180 690,-174 690,-168 690,-168 690,-156 690,-156 690,-150 696,-144 702,-144 702,-144 753,-144 753,-144 759,-144 765,-150 765,-156 765,-156 765,-168 765,-168 765,-174 759,-180 753,-180"/>
<text text-anchor="middle" x="727.5" y="-159.5" font-family="sans" font-size="10.00">run_glimma</text>
</g>
<!-- 9&#45;&gt;0 -->
<g id="edge9" class="edge"><title>9&#45;&gt;0</title>
<path fill="none" stroke="grey" stroke-width="2" d="M735.913,-143.758C744.171,-124.056 753.296,-91.9658 736.5,-72 702.7,-31.8198 542.82,-22.0995 469.01,-19.7491"/>
<polygon fill="grey" stroke="grey" stroke-width="2" points="468.866,-16.2435 458.769,-19.453 468.664,-23.2406 468.866,-16.2435"/>
</g>
<!-- 10&#45;&gt;0 -->
<g id="edge8" class="edge"><title>10&#45;&gt;0</title>
<path fill="none" stroke="grey" stroke-width="2" d="M402.14,-71.6966C406.627,-63.6436 412.059,-53.8945 417.024,-44.9824"/>
<polygon fill="grey" stroke="grey" stroke-width="2" points="420.161,-46.5435 421.97,-36.1043 414.046,-43.1366 420.161,-46.5435"/>
</g>
<!-- 11 -->
<g id="node12" class="node"><title>11</title>
<path fill="none" stroke="#56a9d8" stroke-width="2" d="M592,-252C592,-252 543,-252 543,-252 537,-252 531,-246 531,-240 531,-240 531,-228 531,-228 531,-222 537,-216 543,-216 543,-216 592,-216 592,-216 598,-216 604,-222 604,-228 604,-228 604,-240 604,-240 604,-246 598,-252 592,-252"/>
<text text-anchor="middle" x="567.5" y="-231.5" font-family="sans" font-size="10.00">deseq2_init</text>
</g>
<!-- 11&#45;&gt;2 -->
<g id="edge11" class="edge"><title>11&#45;&gt;2</title>
<path fill="none" stroke="grey" stroke-width="2" d="M567.5,-215.697C567.5,-207.983 567.5,-198.712 567.5,-190.112"/>
<polygon fill="grey" stroke="grey" stroke-width="2" points="571,-190.104 567.5,-180.104 564,-190.104 571,-190.104"/>
</g>
<!-- 11&#45;&gt;9 -->
<g id="edge18" class="edge"><title>11&#45;&gt;9</title>
<path fill="none" stroke="grey" stroke-width="2" d="M604.207,-216.941C626.85,-207.034 656.114,-194.231 680.449,-183.585"/>
<polygon fill="grey" stroke="grey" stroke-width="2" points="682.094,-186.685 689.853,-179.471 679.288,-180.272 682.094,-186.685"/>
</g>
<!-- 12 -->
<g id="node13" class="node"><title>12</title>
<path fill="none" stroke="#566bd8" stroke-width="2" d="M501,-324C501,-324 448,-324 448,-324 442,-324 436,-318 436,-312 436,-312 436,-300 436,-300 436,-294 442,-288 448,-288 448,-288 501,-288 501,-288 507,-288 513,-294 513,-300 513,-300 513,-312 513,-312 513,-318 507,-324 501,-324"/>
<text text-anchor="middle" x="474.5" y="-303.5" font-family="sans" font-size="10.00">filter_counts</text>
</g>
<!-- 12&#45;&gt;3 -->
<g id="edge12" class="edge"><title>12&#45;&gt;3</title>
<path fill="none" stroke="grey" stroke-width="2" d="M450.737,-287.871C415.535,-262.497 349.439,-214.854 309.85,-186.318"/>
<polygon fill="grey" stroke="grey" stroke-width="2" points="311.506,-183.197 301.347,-180.189 307.413,-188.876 311.506,-183.197"/>
</g>
<!-- 12&#45;&gt;11 -->
<g id="edge20" class="edge"><title>12&#45;&gt;11</title>
<path fill="none" stroke="grey" stroke-width="2" d="M497.489,-287.697C509.314,-278.796 523.892,-267.823 536.679,-258.199"/>
<polygon fill="grey" stroke="grey" stroke-width="2" points="538.891,-260.915 544.776,-252.104 534.681,-255.322 538.891,-260.915"/>
</g>
<!-- 13 -->
<g id="node14" class="node"><title>13</title>
<path fill="none" stroke="#68d856" stroke-width="2" d="M521,-396C521,-396 428,-396 428,-396 422,-396 416,-390 416,-384 416,-384 416,-372 416,-372 416,-366 422,-360 428,-360 428,-360 521,-360 521,-360 527,-360 533,-366 533,-372 533,-372 533,-384 533,-384 533,-390 527,-396 521,-396"/>
<text text-anchor="middle" x="474.5" y="-375.5" font-family="sans" font-size="10.00">compile_star_counts</text>
</g>
<!-- 13&#45;&gt;12 -->
<g id="edge21" class="edge"><title>13&#45;&gt;12</title>
<path fill="none" stroke="grey" stroke-width="2" d="M474.5,-359.697C474.5,-351.983 474.5,-342.712 474.5,-334.112"/>
<polygon fill="grey" stroke="grey" stroke-width="2" points="478,-334.104 474.5,-324.104 471,-334.104 478,-334.104"/>
</g>
</g>
</svg>
