<?xml version="1.0" encoding="UTF-8" standalone="no"?>
<!DOCTYPE svg PUBLIC "-//W3C//DTD SVG 1.1//EN"
 "http://www.w3.org/Graphics/SVG/1.1/DTD/svg11.dtd">
<!-- Generated by graphviz version 2.30.1 (20180420.1509)
 -->
<!-- Title: snakemake_dag Pages: 1 -->
<svg width="1030pt" height="548pt"
 viewBox="0.00 0.00 1030.00 548.00" xmlns="http://www.w3.org/2000/svg" xmlns:xlink="http://www.w3.org/1999/xlink">
<g id="graph0" class="graph" transform="scale(1 1) rotate(0) translate(4 544)">
<title>snakemake_dag</title>
<polygon fill="white" stroke="white" points="-4,5 -4,-544 1027,-544 1027,5 -4,5"/>
<!-- 0 -->
<g id="node1" class="node"><title>0</title>
<path fill="none" stroke="#56c9d8" stroke-width="2" d="M489,-36C489,-36 459,-36 459,-36 453,-36 447,-30 447,-24 447,-24 447,-12 447,-12 447,-6 453,-0 459,-0 459,-0 489,-0 489,-0 495,-0 501,-6 501,-12 501,-12 501,-24 501,-24 501,-30 495,-36 489,-36"/>
<text text-anchor="middle" x="474" y="-15.5" font-family="sans" font-size="10.00">all</text>
</g>
<!-- 1 -->
<g id="node2" class="node"><title>1</title>
<path fill="none" stroke="#d87d56" stroke-width="2" d="M664,-540C664,-540 634,-540 634,-540 628,-540 622,-534 622,-528 622,-528 622,-516 622,-516 622,-510 628,-504 634,-504 634,-504 664,-504 664,-504 670,-504 676,-510 676,-516 676,-516 676,-528 676,-528 676,-534 670,-540 664,-540"/>
<text text-anchor="middle" x="649" y="-519.5" font-family="sans" font-size="10.00">fastp</text>
</g>
<!-- 1&#45;&gt;0 -->
<g id="edge3" class="edge"><title>1&#45;&gt;0</title>
<path fill="none" stroke="grey" stroke-width="2" d="M621.94,-520.96C499.111,-520.066 0,-508.468 0,-379 0,-379 0,-379 0,-161 0,-113.295 19.3923,-97.0354 60,-72 122.68,-33.3567 346.771,-22.6665 436.479,-19.9015"/>
<polygon fill="grey" stroke="grey" points="436.84,-23.3926 446.733,-19.6023 436.635,-16.3956 436.84,-23.3926"/>
</g>
<!-- 3 -->
<g id="node4" class="node"><title>3</title>
<path fill="none" stroke="#56d8a2" stroke-width="2" d="M544,-468C544,-468 514,-468 514,-468 508,-468 502,-462 502,-456 502,-456 502,-444 502,-444 502,-438 508,-432 514,-432 514,-432 544,-432 544,-432 550,-432 556,-438 556,-444 556,-444 556,-456 556,-456 556,-462 550,-468 544,-468"/>
<text text-anchor="middle" x="529" y="-447.5" font-family="sans" font-size="10.00">STAR</text>
</g>
<!-- 1&#45;&gt;3 -->
<g id="edge21" class="edge"><title>1&#45;&gt;3</title>
<path fill="none" stroke="grey" stroke-width="2" d="M621.77,-505.116C604.893,-495.271 583.026,-482.515 564.761,-471.861"/>
<polygon fill="grey" stroke="grey" points="566.523,-468.837 556.122,-466.821 562.996,-474.883 566.523,-468.837"/>
</g>
<!-- 4 -->
<g id="node5" class="node"><title>4</title>
<path fill="none" stroke="#56d86b" stroke-width="2" d="M785,-468C785,-468 755,-468 755,-468 749,-468 743,-462 743,-456 743,-456 743,-444 743,-444 743,-438 749,-432 755,-432 755,-432 785,-432 785,-432 791,-432 797,-438 797,-444 797,-444 797,-456 797,-456 797,-462 791,-468 785,-468"/>
<text text-anchor="middle" x="770" y="-447.5" font-family="sans" font-size="10.00">fastqc</text>
</g>
<!-- 1&#45;&gt;4 -->
<g id="edge22" class="edge"><title>1&#45;&gt;4</title>
<path fill="none" stroke="grey" stroke-width="2" d="M676.155,-505.291C693.28,-495.383 715.589,-482.477 734.159,-471.734"/>
<polygon fill="grey" stroke="grey" points="736.033,-474.694 742.936,-466.657 732.527,-468.635 736.033,-474.694"/>
</g>
<!-- 5 -->
<g id="node6" class="node"><title>5</title>
<path fill="none" stroke="#568ad8" stroke-width="2" d="M962,-468C962,-468 912,-468 912,-468 906,-468 900,-462 900,-456 900,-456 900,-444 900,-444 900,-438 906,-432 912,-432 912,-432 962,-432 962,-432 968,-432 974,-438 974,-444 974,-444 974,-456 974,-456 974,-462 968,-468 962,-468"/>
<text text-anchor="middle" x="937" y="-447.5" font-family="sans" font-size="10.00">fastqscreen</text>
</g>
<!-- 1&#45;&gt;5 -->
<g id="edge23" class="edge"><title>1&#45;&gt;5</title>
<path fill="none" stroke="grey" stroke-width="2" d="M676.094,-514.415C725.172,-502.486 829.319,-477.172 890.143,-462.389"/>
<polygon fill="grey" stroke="grey" points="890.991,-465.785 899.881,-460.022 889.337,-458.983 890.991,-465.785"/>
</g>
<!-- 2 -->
<g id="node3" class="node"><title>2</title>
<path fill="none" stroke="#56b1d8" stroke-width="2" d="M115.25,-324C115.25,-324 54.75,-324 54.75,-324 48.75,-324 42.75,-318 42.75,-312 42.75,-312 42.75,-300 42.75,-300 42.75,-294 48.75,-288 54.75,-288 54.75,-288 115.25,-288 115.25,-288 121.25,-288 127.25,-294 127.25,-300 127.25,-300 127.25,-312 127.25,-312 127.25,-318 121.25,-324 115.25,-324"/>
<text text-anchor="middle" x="85" y="-303.5" font-family="sans" font-size="10.00">star_statistics</text>
</g>
<!-- 2&#45;&gt;0 -->
<g id="edge16" class="edge"><title>2&#45;&gt;0</title>
<path fill="none" stroke="grey" stroke-width="2" d="M73.1128,-287.725C66.9875,-277.765 60.1552,-264.727 57,-252 43.1246,-196.032 56.9851,-94.454 80,-72 130.143,-23.0795 348.505,-18.4174 436.775,-18.5839"/>
<polygon fill="grey" stroke="grey" points="436.86,-22.0842 446.874,-18.6255 436.889,-15.0842 436.86,-22.0842"/>
</g>
<!-- 3&#45;&gt;2 -->
<g id="edge20" class="edge"><title>3&#45;&gt;2</title>
<path fill="none" stroke="grey" stroke-width="2" d="M501.592,-449.405C442.619,-449.286 300.417,-443.627 194,-396 160.039,-380.801 127.909,-352.187 107.45,-331.499"/>
<polygon fill="grey" stroke="grey" points="109.928,-329.027 100.459,-324.275 104.898,-333.895 109.928,-329.027"/>
</g>
<!-- 6 -->
<g id="node7" class="node"><title>6</title>
<path fill="none" stroke="#56d8c9" stroke-width="2" d="M149.25,-252C149.25,-252 78.75,-252 78.75,-252 72.75,-252 66.75,-246 66.75,-240 66.75,-240 66.75,-228 66.75,-228 66.75,-222 72.75,-216 78.75,-216 78.75,-216 149.25,-216 149.25,-216 155.25,-216 161.25,-222 161.25,-228 161.25,-228 161.25,-240 161.25,-240 161.25,-246 155.25,-252 149.25,-252"/>
<text text-anchor="middle" x="114" y="-231.5" font-family="sans" font-size="10.00">insertion_profile</text>
</g>
<!-- 3&#45;&gt;6 -->
<g id="edge24" class="edge"><title>3&#45;&gt;6</title>
<path fill="none" stroke="grey" stroke-width="2" d="M501.812,-444.368C464.296,-437.311 395.155,-421.883 341,-396 262.125,-358.302 181.348,-293.466 140.76,-258.685"/>
<polygon fill="grey" stroke="grey" points="143.046,-256.035 133.19,-252.147 138.47,-261.332 143.046,-256.035"/>
</g>
<!-- 7 -->
<g id="node8" class="node"><title>7</title>
<path fill="none" stroke="#d8a456" stroke-width="2" d="M341.25,-324C341.25,-324 274.75,-324 274.75,-324 268.75,-324 262.75,-318 262.75,-312 262.75,-312 262.75,-300 262.75,-300 262.75,-294 268.75,-288 274.75,-288 274.75,-288 341.25,-288 341.25,-288 347.25,-288 353.25,-294 353.25,-300 353.25,-300 353.25,-312 353.25,-312 353.25,-318 347.25,-324 341.25,-324"/>
<text text-anchor="middle" x="308" y="-303.5" font-family="sans" font-size="10.00">clipping_profile</text>
</g>
<!-- 3&#45;&gt;7 -->
<g id="edge25" class="edge"><title>3&#45;&gt;7</title>
<path fill="none" stroke="grey" stroke-width="2" d="M501.845,-443.88C470.506,-436.983 418.48,-422.412 381,-396 357.059,-379.129 336.605,-352.407 323.492,-332.641"/>
<polygon fill="grey" stroke="grey" points="326.355,-330.622 317.997,-324.11 320.469,-334.412 326.355,-330.622"/>
</g>
<!-- 8 -->
<g id="node9" class="node"><title>8</title>
<path fill="none" stroke="#9fd856" stroke-width="2" d="M315,-252C315,-252 281,-252 281,-252 275,-252 269,-246 269,-240 269,-240 269,-228 269,-228 269,-222 275,-216 281,-216 281,-216 315,-216 315,-216 321,-216 327,-222 327,-228 327,-228 327,-240 327,-240 327,-246 321,-252 315,-252"/>
<text text-anchor="middle" x="298" y="-231.5" font-family="sans" font-size="10.00">read_GC</text>
</g>
<!-- 3&#45;&gt;8 -->
<g id="edge26" class="edge"><title>3&#45;&gt;8</title>
<path fill="none" stroke="grey" stroke-width="2" d="M504.924,-431.776C491.547,-421.832 474.858,-408.793 461,-396 413.155,-351.832 409.187,-332.871 362,-288 351.42,-277.939 339.203,-267.55 328.297,-258.664"/>
<polygon fill="grey" stroke="grey" points="330.245,-255.739 320.261,-252.193 325.854,-261.191 330.245,-255.739"/>
</g>
<!-- 12 -->
<g id="node13" class="node"><title>12</title>
<path fill="none" stroke="#78d856" stroke-width="2" d="M575.25,-396C575.25,-396 482.75,-396 482.75,-396 476.75,-396 470.75,-390 470.75,-384 470.75,-384 470.75,-372 470.75,-372 470.75,-366 476.75,-360 482.75,-360 482.75,-360 575.25,-360 575.25,-360 581.25,-360 587.25,-366 587.25,-372 587.25,-372 587.25,-384 587.25,-384 587.25,-390 581.25,-396 575.25,-396"/>
<text text-anchor="middle" x="529" y="-375.5" font-family="sans" font-size="10.00">compile_star_counts</text>
</g>
<!-- 3&#45;&gt;12 -->
<g id="edge30" class="edge"><title>3&#45;&gt;12</title>
<path fill="none" stroke="grey" stroke-width="2" d="M529,-431.697C529,-423.983 529,-414.712 529,-406.112"/>
<polygon fill="grey" stroke="grey" points="532.5,-406.104 529,-396.104 525.5,-406.104 532.5,-406.104"/>
</g>
<!-- 13 -->
<g id="node14" class="node"><title>13</title>
<path fill="none" stroke="#d85656" stroke-width="2" d="M672,-396C672,-396 642,-396 642,-396 636,-396 630,-390 630,-384 630,-384 630,-372 630,-372 630,-366 636,-360 642,-360 642,-360 672,-360 672,-360 678,-360 684,-366 684,-372 684,-372 684,-384 684,-384 684,-390 678,-396 672,-396"/>
<text text-anchor="middle" x="657" y="-375.5" font-family="sans" font-size="10.00">multiqc</text>
</g>
<!-- 3&#45;&gt;13 -->
<g id="edge31" class="edge"><title>3&#45;&gt;13</title>
<path fill="none" stroke="grey" stroke-width="2" d="M556.146,-434.155C575.067,-423.807 600.509,-409.893 621.105,-398.63"/>
<polygon fill="grey" stroke="grey" points="622.799,-401.693 629.894,-393.824 619.441,-395.551 622.799,-401.693"/>
</g>
<!-- 23 -->
<g id="node24" class="node"><title>23</title>
<path fill="none" stroke="#d8b456" stroke-width="2" d="M944,-324C944,-324 914,-324 914,-324 908,-324 902,-318 902,-312 902,-312 902,-300 902,-300 902,-294 908,-288 914,-288 914,-288 944,-288 944,-288 950,-288 956,-294 956,-300 956,-300 956,-312 956,-312 956,-318 950,-324 944,-324"/>
<text text-anchor="middle" x="929" y="-303.5" font-family="sans" font-size="10.00">bigwig</text>
</g>
<!-- 3&#45;&gt;23 -->
<g id="edge41" class="edge"><title>3&#45;&gt;23</title>
<path fill="none" stroke="grey" stroke-width="2" d="M556.102,-440.617C588.714,-430.443 645.07,-412.585 693,-396 780.306,-365.789 801.98,-357.699 888,-324 889.39,-323.455 890.805,-322.896 892.232,-322.327"/>
<polygon fill="grey" stroke="grey" points="893.757,-325.485 901.713,-318.489 891.131,-318.997 893.757,-325.485"/>
</g>
<!-- 24 -->
<g id="node25" class="node"><title>24</title>
<path fill="none" stroke="#d88d56" stroke-width="2" d="M851,-396C851,-396 821,-396 821,-396 815,-396 809,-390 809,-384 809,-384 809,-372 809,-372 809,-366 815,-360 821,-360 821,-360 851,-360 851,-360 857,-360 863,-366 863,-372 863,-372 863,-384 863,-384 863,-390 857,-396 851,-396"/>
<text text-anchor="middle" x="836" y="-375.5" font-family="sans" font-size="10.00">index</text>
</g>
<!-- 3&#45;&gt;24 -->
<g id="edge43" class="edge"><title>3&#45;&gt;24</title>
<path fill="none" stroke="grey" stroke-width="2" d="M556.06,-443.512C601.03,-434.299 693.935,-414.871 772,-396 780.85,-393.861 790.349,-391.418 799.249,-389.065"/>
<polygon fill="grey" stroke="grey" points="800.218,-392.428 808.976,-386.466 798.411,-385.666 800.218,-392.428"/>
</g>
<!-- 4&#45;&gt;0 -->
<g id="edge12" class="edge"><title>4&#45;&gt;0</title>
<path fill="none" stroke="grey" stroke-width="2" d="M797.103,-444.212C854.688,-432.318 984,-395.73 984,-307 984,-307 984,-307 984,-161 984,-118.162 981.252,-97.7263 947,-72 878.471,-20.5286 610.423,-17.673 511.202,-18.4416"/>
<polygon fill="grey" stroke="grey" points="511.012,-14.9431 501.046,-18.5379 511.078,-21.9428 511.012,-14.9431"/>
</g>
<!-- 5&#45;&gt;0 -->
<g id="edge18" class="edge"><title>5&#45;&gt;0</title>
<path fill="none" stroke="grey" stroke-width="2" d="M955.864,-431.729C980.906,-406.816 1022,-358.143 1022,-307 1022,-307 1022,-307 1022,-161 1022,-116.676 1013.49,-97.167 977,-72 901.603,-19.994 615.058,-17.5523 511.568,-18.43"/>
<polygon fill="grey" stroke="grey" points="511.25,-14.933 501.286,-18.5336 511.32,-21.9326 511.25,-14.933"/>
</g>
<!-- 6&#45;&gt;0 -->
<g id="edge15" class="edge"><title>6&#45;&gt;0</title>
<path fill="none" stroke="grey" stroke-width="2" d="M105.423,-215.976C90.4836,-183.633 64.498,-112.888 100,-72 143.389,-22.0285 350.834,-17.9087 436.68,-18.4026"/>
<polygon fill="grey" stroke="grey" points="436.737,-21.9031 446.766,-18.4855 436.795,-14.9033 436.737,-21.9031"/>
</g>
<!-- 7&#45;&gt;0 -->
<g id="edge4" class="edge"><title>7&#45;&gt;0</title>
<path fill="none" stroke="grey" stroke-width="2" d="M285.731,-287.776C235.766,-247.108 123.596,-143.201 183,-72 214.839,-33.8385 364.895,-23.0854 436.196,-20.1101"/>
<polygon fill="grey" stroke="grey" points="436.67,-23.5945 446.527,-19.7108 436.4,-16.5997 436.67,-23.5945"/>
</g>
<!-- 8&#45;&gt;0 -->
<g id="edge8" class="edge"><title>8&#45;&gt;0</title>
<path fill="none" stroke="grey" stroke-width="2" d="M273.222,-215.783C232.161,-185.193 158.284,-120.069 198,-72 227.869,-35.8498 368.485,-24.1063 436.7,-20.4985"/>
<polygon fill="grey" stroke="grey" points="437.185,-23.9788 446.999,-19.9868 436.837,-16.9875 437.185,-23.9788"/>
</g>
<!-- 9 -->
<g id="node10" class="node"><title>9</title>
<path fill="none" stroke="#567bd8" stroke-width="2" d="M364,-180C364,-180 290,-180 290,-180 284,-180 278,-174 278,-168 278,-168 278,-156 278,-156 278,-150 284,-144 290,-144 290,-144 364,-144 364,-144 370,-144 376,-150 376,-156 376,-156 376,-168 376,-168 376,-174 370,-180 364,-180"/>
<text text-anchor="middle" x="327" y="-159.5" font-family="sans" font-size="10.00">deseq2_pairwise</text>
</g>
<!-- 9&#45;&gt;0 -->
<g id="edge19" class="edge"><title>9&#45;&gt;0</title>
<path fill="none" stroke="grey" stroke-width="2" d="M277.907,-152.083C252.741,-144.757 224.251,-131.568 209,-108 200.308,-94.567 198.856,-84.3735 209,-72 237.376,-37.3866 370.65,-24.9281 436.702,-20.827"/>
<polygon fill="grey" stroke="grey" points="436.923,-24.3202 446.7,-20.2385 436.512,-17.3323 436.923,-24.3202"/>
</g>
<!-- 20 -->
<g id="node21" class="node"><title>20</title>
<path fill="none" stroke="#d8c356" stroke-width="2" d="M288,-108C288,-108 230,-108 230,-108 224,-108 218,-102 218,-96 218,-96 218,-84 218,-84 218,-78 224,-72 230,-72 230,-72 288,-72 288,-72 294,-72 300,-78 300,-84 300,-84 300,-96 300,-96 300,-102 294,-108 288,-108"/>
<text text-anchor="middle" x="259" y="-87.5" font-family="sans" font-size="10.00">deseq2_qplot</text>
</g>
<!-- 9&#45;&gt;20 -->
<g id="edge38" class="edge"><title>9&#45;&gt;20</title>
<path fill="none" stroke="grey" stroke-width="2" d="M310.191,-143.697C301.874,-135.135 291.695,-124.656 282.61,-115.304"/>
<polygon fill="grey" stroke="grey" points="285.094,-112.838 275.616,-108.104 280.073,-117.716 285.094,-112.838"/>
</g>
<!-- 21 -->
<g id="node22" class="node"><title>21</title>
<path fill="none" stroke="#68d856" stroke-width="2" d="M360,-108C360,-108 330,-108 330,-108 324,-108 318,-102 318,-96 318,-96 318,-84 318,-84 318,-78 324,-72 330,-72 330,-72 360,-72 360,-72 366,-72 372,-78 372,-84 372,-84 372,-96 372,-96 372,-102 366,-108 360,-108"/>
<text text-anchor="middle" x="345" y="-87.5" font-family="sans" font-size="10.00">GO</text>
</g>
<!-- 9&#45;&gt;21 -->
<g id="edge39" class="edge"><title>9&#45;&gt;21</title>
<path fill="none" stroke="grey" stroke-width="2" d="M331.449,-143.697C333.455,-135.898 335.869,-126.509 338.101,-117.829"/>
<polygon fill="grey" stroke="grey" points="341.501,-118.661 340.602,-108.104 334.722,-116.918 341.501,-118.661"/>
</g>
<!-- 22 -->
<g id="node23" class="node"><title>22</title>
<path fill="none" stroke="#59d856" stroke-width="2" d="M433.25,-108C433.25,-108 402.75,-108 402.75,-108 396.75,-108 390.75,-102 390.75,-96 390.75,-96 390.75,-84 390.75,-84 390.75,-78 396.75,-72 402.75,-72 402.75,-72 433.25,-72 433.25,-72 439.25,-72 445.25,-78 445.25,-84 445.25,-84 445.25,-96 445.25,-96 445.25,-102 439.25,-108 433.25,-108"/>
<text text-anchor="middle" x="418" y="-87.5" font-family="sans" font-size="10.00">volcano</text>
</g>
<!-- 9&#45;&gt;22 -->
<g id="edge40" class="edge"><title>9&#45;&gt;22</title>
<path fill="none" stroke="grey" stroke-width="2" d="M349.494,-143.697C360.955,-134.881 375.058,-124.032 387.484,-114.474"/>
<polygon fill="grey" stroke="grey" points="389.972,-116.976 395.764,-108.104 385.704,-111.427 389.972,-116.976"/>
</g>
<!-- 10 -->
<g id="node11" class="node"><title>10</title>
<path fill="none" stroke="#566bd8" stroke-width="2" d="M456.25,-252C456.25,-252 407.75,-252 407.75,-252 401.75,-252 395.75,-246 395.75,-240 395.75,-240 395.75,-228 395.75,-228 395.75,-222 401.75,-216 407.75,-216 407.75,-216 456.25,-216 456.25,-216 462.25,-216 468.25,-222 468.25,-228 468.25,-228 468.25,-240 468.25,-240 468.25,-246 462.25,-252 456.25,-252"/>
<text text-anchor="middle" x="432" y="-231.5" font-family="sans" font-size="10.00">deseq2_init</text>
</g>
<!-- 10&#45;&gt;9 -->
<g id="edge27" class="edge"><title>10&#45;&gt;9</title>
<path fill="none" stroke="grey" stroke-width="2" d="M406.314,-215.876C392.712,-206.808 375.828,-195.552 361.139,-185.759"/>
<polygon fill="grey" stroke="grey" points="363.047,-182.825 352.785,-180.19 359.164,-188.649 363.047,-182.825"/>
</g>
<!-- 18 -->
<g id="node19" class="node"><title>18</title>
<path fill="none" stroke="#d86656" stroke-width="2" d="M457.25,-180C457.25,-180 406.75,-180 406.75,-180 400.75,-180 394.75,-174 394.75,-168 394.75,-168 394.75,-156 394.75,-156 394.75,-150 400.75,-144 406.75,-144 406.75,-144 457.25,-144 457.25,-144 463.25,-144 469.25,-150 469.25,-156 469.25,-156 469.25,-168 469.25,-168 469.25,-174 463.25,-180 457.25,-180"/>
<text text-anchor="middle" x="432" y="-159.5" font-family="sans" font-size="10.00">run_glimma</text>
</g>
<!-- 10&#45;&gt;18 -->
<g id="edge36" class="edge"><title>10&#45;&gt;18</title>
<path fill="none" stroke="grey" stroke-width="2" d="M432,-215.697C432,-207.983 432,-198.712 432,-190.112"/>
<polygon fill="grey" stroke="grey" points="435.5,-190.104 432,-180.104 428.5,-190.104 435.5,-190.104"/>
</g>
<!-- 11 -->
<g id="node12" class="node"><title>11</title>
<path fill="none" stroke="#b6d856" stroke-width="2" d="M555.25,-324C555.25,-324 502.75,-324 502.75,-324 496.75,-324 490.75,-318 490.75,-312 490.75,-312 490.75,-300 490.75,-300 490.75,-294 496.75,-288 502.75,-288 502.75,-288 555.25,-288 555.25,-288 561.25,-288 567.25,-294 567.25,-300 567.25,-300 567.25,-312 567.25,-312 567.25,-318 561.25,-324 555.25,-324"/>
<text text-anchor="middle" x="529" y="-303.5" font-family="sans" font-size="10.00">filter_counts</text>
</g>
<!-- 11&#45;&gt;10 -->
<g id="edge28" class="edge"><title>11&#45;&gt;10</title>
<path fill="none" stroke="grey" stroke-width="2" d="M505.022,-287.697C492.689,-278.796 477.484,-267.823 464.147,-258.199"/>
<polygon fill="grey" stroke="grey" points="465.859,-255.118 455.702,-252.104 461.763,-260.794 465.859,-255.118"/>
</g>
<!-- 14 -->
<g id="node15" class="node"><title>14</title>
<path fill="none" stroke="#d6d856" stroke-width="2" d="M558.25,-180C558.25,-180 499.75,-180 499.75,-180 493.75,-180 487.75,-174 487.75,-168 487.75,-168 487.75,-156 487.75,-156 487.75,-150 493.75,-144 499.75,-144 499.75,-144 558.25,-144 558.25,-144 564.25,-144 570.25,-150 570.25,-156 570.25,-156 570.25,-168 570.25,-168 570.25,-174 564.25,-180 558.25,-180"/>
<text text-anchor="middle" x="529" y="-159.5" font-family="sans" font-size="10.00">deseq2_norm</text>
</g>
<!-- 11&#45;&gt;14 -->
<g id="edge32" class="edge"><title>11&#45;&gt;14</title>
<path fill="none" stroke="grey" stroke-width="2" d="M529,-287.871C529,-263.67 529,-219.211 529,-190.393"/>
<polygon fill="grey" stroke="grey" points="532.5,-190.189 529,-180.189 525.5,-190.189 532.5,-190.189"/>
</g>
<!-- 15 -->
<g id="node16" class="node"><title>15</title>
<path fill="none" stroke="#56d87b" stroke-width="2" d="M661.25,-180C661.25,-180 600.75,-180 600.75,-180 594.75,-180 588.75,-174 588.75,-168 588.75,-168 588.75,-156 588.75,-156 588.75,-150 594.75,-144 600.75,-144 600.75,-144 661.25,-144 661.25,-144 667.25,-144 673.25,-150 673.25,-156 673.25,-156 673.25,-168 673.25,-168 673.25,-174 667.25,-180 661.25,-180"/>
<text text-anchor="middle" x="631" y="-159.5" font-family="sans" font-size="10.00">deseq2_group</text>
</g>
<!-- 11&#45;&gt;15 -->
<g id="edge33" class="edge"><title>11&#45;&gt;15</title>
<path fill="none" stroke="grey" stroke-width="2" d="M541.304,-287.871C559.07,-263.137 592.037,-217.242 612.674,-188.512"/>
<polygon fill="grey" stroke="grey" points="615.661,-190.353 618.653,-180.189 609.976,-186.269 615.661,-190.353"/>
</g>
<!-- 12&#45;&gt;11 -->
<g id="edge29" class="edge"><title>12&#45;&gt;11</title>
<path fill="none" stroke="grey" stroke-width="2" d="M529,-359.697C529,-351.983 529,-342.712 529,-334.112"/>
<polygon fill="grey" stroke="grey" points="532.5,-334.104 529,-324.104 525.5,-334.104 532.5,-334.104"/>
</g>
<!-- 13&#45;&gt;0 -->
<g id="edge1" class="edge"><title>13&#45;&gt;0</title>
<path fill="none" stroke="grey" stroke-width="2" d="M684.207,-361.955C763.113,-316.515 980.709,-177.334 888,-72 863.255,-43.8851 608.45,-26.6134 511.325,-21.0084"/>
<polygon fill="grey" stroke="grey" points="511.27,-17.4997 501.088,-20.4272 510.873,-24.4884 511.27,-17.4997"/>
</g>
<!-- 14&#45;&gt;0 -->
<g id="edge7" class="edge"><title>14&#45;&gt;0</title>
<path fill="none" stroke="grey" stroke-width="2" d="M522.366,-143.871C512.909,-119.457 495.468,-74.4258 484.316,-45.6351"/>
<polygon fill="grey" stroke="grey" points="487.533,-44.2501 480.658,-36.1893 481.006,-46.7784 487.533,-44.2501"/>
</g>
<!-- 15&#45;&gt;0 -->
<g id="edge13" class="edge"><title>15&#45;&gt;0</title>
<path fill="none" stroke="grey" stroke-width="2" d="M610.413,-143.805C598.249,-133.545 582.612,-120.183 569,-108 545.022,-86.5398 518.329,-61.42 499.359,-43.3499"/>
<polygon fill="grey" stroke="grey" points="501.635,-40.6838 491.985,-36.3104 496.801,-45.7471 501.635,-40.6838"/>
</g>
<!-- 16 -->
<g id="node17" class="node"><title>16</title>
<path fill="none" stroke="#56d88a" stroke-width="2" d="M637.25,-108C637.25,-108 590.75,-108 590.75,-108 584.75,-108 578.75,-102 578.75,-96 578.75,-96 578.75,-84 578.75,-84 578.75,-78 584.75,-72 590.75,-72 590.75,-72 637.25,-72 637.25,-72 643.25,-72 649.25,-78 649.25,-84 649.25,-84 649.25,-96 649.25,-96 649.25,-102 643.25,-108 637.25,-108"/>
<text text-anchor="middle" x="614" y="-87.5" font-family="sans" font-size="10.00">deseq2_QC</text>
</g>
<!-- 15&#45;&gt;16 -->
<g id="edge34" class="edge"><title>15&#45;&gt;16</title>
<path fill="none" stroke="grey" stroke-width="2" d="M626.798,-143.697C624.904,-135.898 622.623,-126.509 620.516,-117.829"/>
<polygon fill="grey" stroke="grey" points="623.915,-116.996 618.154,-108.104 617.113,-118.648 623.915,-116.996"/>
</g>
<!-- 17 -->
<g id="node18" class="node"><title>17</title>
<path fill="none" stroke="#8fd856" stroke-width="2" d="M748.25,-108C748.25,-108 679.75,-108 679.75,-108 673.75,-108 667.75,-102 667.75,-96 667.75,-96 667.75,-84 667.75,-84 667.75,-78 673.75,-72 679.75,-72 679.75,-72 748.25,-72 748.25,-72 754.25,-72 760.25,-78 760.25,-84 760.25,-84 760.25,-96 760.25,-96 760.25,-102 754.25,-108 748.25,-108"/>
<text text-anchor="middle" x="714" y="-87.5" font-family="sans" font-size="10.00">deseq2_density</text>
</g>
<!-- 15&#45;&gt;17 -->
<g id="edge35" class="edge"><title>15&#45;&gt;17</title>
<path fill="none" stroke="grey" stroke-width="2" d="M651.517,-143.697C661.869,-134.965 674.586,-124.24 685.839,-114.75"/>
<polygon fill="grey" stroke="grey" points="688.331,-117.227 693.719,-108.104 683.818,-111.876 688.331,-117.227"/>
</g>
<!-- 19 -->
<g id="node20" class="node"><title>19</title>
<path fill="none" stroke="#56a2d8" stroke-width="2" d="M867.25,-108C867.25,-108 790.75,-108 790.75,-108 784.75,-108 778.75,-102 778.75,-96 778.75,-96 778.75,-84 778.75,-84 778.75,-78 784.75,-72 790.75,-72 790.75,-72 867.25,-72 867.25,-72 873.25,-72 879.25,-78 879.25,-84 879.25,-84 879.25,-96 879.25,-96 879.25,-102 873.25,-108 867.25,-108"/>
<text text-anchor="middle" x="829" y="-87.5" font-family="sans" font-size="10.00">run_glimma_mds</text>
</g>
<!-- 15&#45;&gt;19 -->
<g id="edge37" class="edge"><title>15&#45;&gt;19</title>
<path fill="none" stroke="grey" stroke-width="2" d="M673.476,-145.983C702.001,-135.899 739.941,-122.486 771.206,-111.432"/>
<polygon fill="grey" stroke="grey" points="772.416,-114.717 780.678,-108.084 770.083,-108.117 772.416,-114.717"/>
</g>
<!-- 16&#45;&gt;0 -->
<g id="edge14" class="edge"><title>16&#45;&gt;0</title>
<path fill="none" stroke="grey" stroke-width="2" d="M579.752,-71.8761C558.738,-61.3692 531.849,-47.9245 510.443,-37.2217"/>
<polygon fill="grey" stroke="grey" points="511.847,-34.0104 501.337,-32.6687 508.716,-40.2714 511.847,-34.0104"/>
</g>
<!-- 17&#45;&gt;0 -->
<g id="edge9" class="edge"><title>17&#45;&gt;0</title>
<path fill="none" stroke="grey" stroke-width="2" d="M667.567,-74.8487C664.331,-73.8795 661.118,-72.9222 658,-72 607.153,-56.96 548.238,-40.0868 511.048,-29.5034"/>
<polygon fill="grey" stroke="grey" points="511.735,-26.0601 501.159,-26.6919 509.82,-32.7933 511.735,-26.0601"/>
</g>
<!-- 18&#45;&gt;0 -->
<g id="edge2" class="edge"><title>18&#45;&gt;0</title>
<path fill="none" stroke="grey" stroke-width="2" d="M440.107,-143.616C444.643,-133.405 450.143,-120.155 454,-108 460.456,-87.6535 465.658,-64.0598 469.137,-46.2789"/>
<polygon fill="grey" stroke="grey" points="472.605,-46.7723 471.029,-36.2954 465.728,-45.4686 472.605,-46.7723"/>
</g>
<!-- 19&#45;&gt;0 -->
<g id="edge17" class="edge"><title>19&#45;&gt;0</title>
<path fill="none" stroke="grey" stroke-width="2" d="M778.678,-74.3542C775.412,-73.5237 772.165,-72.7308 769,-72 677.071,-50.7729 567.38,-33.0279 511.202,-24.4808"/>
<polygon fill="grey" stroke="grey" points="511.436,-20.9766 501.026,-22.9443 510.391,-27.8981 511.436,-20.9766"/>
</g>
<!-- 20&#45;&gt;0 -->
<g id="edge6" class="edge"><title>20&#45;&gt;0</title>
<path fill="none" stroke="grey" stroke-width="2" d="M300.182,-74.9365C303.164,-73.937 306.127,-72.9497 309,-72 352.881,-57.4937 403.509,-41.3137 436.988,-30.6915"/>
<polygon fill="grey" stroke="grey" points="438.326,-33.9391 446.801,-27.5813 436.211,-27.2663 438.326,-33.9391"/>
</g>
<!-- 21&#45;&gt;0 -->
<g id="edge11" class="edge"><title>21&#45;&gt;0</title>
<path fill="none" stroke="grey" stroke-width="2" d="M372.043,-74.3257C391.221,-63.9188 417.161,-49.843 438.076,-38.4936"/>
<polygon fill="grey" stroke="grey" points="439.873,-41.5007 446.993,-33.655 436.534,-35.3482 439.873,-41.5007"/>
</g>
<!-- 22&#45;&gt;0 -->
<g id="edge10" class="edge"><title>22&#45;&gt;0</title>
<path fill="none" stroke="grey" stroke-width="2" d="M431.843,-71.6966C438.489,-63.3893 446.578,-53.2771 453.887,-44.1407"/>
<polygon fill="grey" stroke="grey" points="456.803,-46.0995 460.317,-36.1043 451.336,-41.7266 456.803,-46.0995"/>
</g>
<!-- 23&#45;&gt;0 -->
<g id="edge5" class="edge"><title>23&#45;&gt;0</title>
<path fill="none" stroke="grey" stroke-width="2" d="M935.051,-287.915C948.957,-245.239 977.898,-133.03 922,-72 894.411,-41.8779 614.279,-25.6532 511.526,-20.6791"/>
<polygon fill="grey" stroke="grey" points="511.457,-17.172 501.302,-20.1932 511.125,-24.1641 511.457,-17.172"/>
</g>
<!-- 24&#45;&gt;23 -->
<g id="edge42" class="edge"><title>24&#45;&gt;23</title>
<path fill="none" stroke="grey" stroke-width="2" d="M858.989,-359.697C870.814,-350.796 885.392,-339.823 898.179,-330.199"/>
<polygon fill="grey" stroke="grey" points="900.391,-332.915 906.276,-324.104 896.181,-327.322 900.391,-332.915"/>
</g>
</g>
</svg>
